<?xml version="1.0" standalone="no"?>
<!DOCTYPE svg PUBLIC "-//W3C//DTD SVG 20010904//EN"
 "http://www.w3.org/TR/2001/REC-SVG-20010904/DTD/svg10.dtd">
<svg version="1.0" xmlns="http://www.w3.org/2000/svg"
 width="700.000000pt" height="700.000000pt" viewBox="0 0 700.000000 700.000000"
 preserveAspectRatio="xMidYMid meet">
<metadata>
Created by potrace 1.14, written by Peter Selinger 2001-2017
</metadata>
<g transform="translate(0.000000,700.000000) scale(0.100000,-0.100000)"
fill="#000000" stroke="none">
<path d="M1471 5679 c-177 -30 -297 -157 -324 -345 -28 -189 55 -384 192 -454
67 -34 149 -50 256 -50 267 0 409 113 447 353 29 192 -52 381 -195 454 -94 47
-242 64 -376 42z"/>
<path d="M4582 4549 c-439 -51 -711 -281 -858 -724 l-33 -100 -1 368 0 367
-315 0 -315 0 0 -1545 0 -1545 400 0 400 0 0 963 c0 1074 -2 1038 70 1183 74
150 235 273 405 309 89 19 240 19 328 0 205 -43 359 -196 424 -420 16 -55 18
-143 21 -1047 l3 -988 395 0 395 0 -4 1047 c-3 1028 -4 1050 -25 1163 -62 325
-162 535 -336 705 -121 117 -254 190 -432 235 -142 37 -356 48 -522 29z"/>
<path d="M870 4165 l0 -295 218 -2 217 -3 3 -1247 2 -1248 395 0 395 0 0 1545
0 1545 -615 0 -615 0 0 -295z"/>
</g>
</svg>
